HIERARCHY
ROOT Hips
{
    OFFSET 0.000000 0.000000 0.000000
    CHANNELS 6 Xposition Yposition Zposition Zrotation Xrotation Yrotation
    JOINT Spine
    {
        OFFSET -0.000000 14.517291 0.000000
        CHANNELS 3 Zrotation Xrotation Yrotation
        JOINT Spine1
        {
            OFFSET -0.000000 37.558300 0.000000
            CHANNELS 3 Zrotation Xrotation Yrotation
            JOINT Neck
            {
                OFFSET -0.000000 37.404057 3.400369
                CHANNELS 3 Zrotation Xrotation Yrotation
                JOINT Head
                {
                    OFFSET -0.000000 24.785618 -3.540803
                    CHANNELS 3 Zrotation Xrotation Yrotation
                    End Site
                    {
                        OFFSET -0.000000 35.408028 0.000000
                    }
                }
            }
            JOINT LeftShoulder
            {
                OFFSET 6.992933 33.973492 -0.192664
                CHANNELS 3 Zrotation Xrotation Yrotation
                JOINT LeftArm
                {
                    OFFSET 21.527611 0.000000 0.000000
                    CHANNELS 3 Zrotation Xrotation Yrotation
                    JOINT LeftForeArm
                    {
                        OFFSET 56.353916 0.000000 0.000000
                        CHANNELS 3 Zrotation Xrotation Yrotation
                        JOINT LeftHand
                        {
                            OFFSET 47.774071 0.000000 0.000000
                            CHANNELS 3 Zrotation Xrotation Yrotation
                            End Site
                            {
                                OFFSET 26.556021 0.000000 0.000000
                            }
                        }
                    }
                }
            }
            JOINT RightShoulder
            {
                OFFSET -7.065357 33.973492 -0.192664
                CHANNELS 3 Zrotation Xrotation Yrotation
                JOINT RightArm
                {
                    OFFSET -21.527611 0.000000 0.000000
                    CHANNELS 3 Zrotation Xrotation Yrotation
                    JOINT RightForeArm
                    {
                        OFFSET -56.353916 0.000000 0.000000
                        CHANNELS 3 Zrotation Xrotation Yrotation
                        JOINT RightHand
                        {
                            OFFSET -47.774071 0.000000 0.000000
                            CHANNELS 3 Zrotation Xrotation Yrotation
                            End Site
                            {
                                OFFSET -26.556021 0.000000 0.000000
                            }
                        }
                    }
                }
            }
        }
    }
    JOINT LeftUpLeg
    {
        OFFSET 17.704014 0.000000 0.000000
        CHANNELS 3 Zrotation Xrotation Yrotation
        JOINT LeftLeg
        {
            OFFSET -0.000000 -81.181816 0.000000
            CHANNELS 3 Zrotation Xrotation Yrotation
            JOINT LeftFoot
            {
                OFFSET -0.000000 -62.821102 0.000000
                CHANNELS 3 Zrotation Xrotation Yrotation
                JOINT LeftToeBase
                {
                    OFFSET -0.000000 -11.507608 26.556021
                    CHANNELS 3 Zrotation Xrotation Yrotation
                    End Site
                    {
                        OFFSET -0.000000 0.000000 7.081605
                    }
                }
            }
        }
    }
    JOINT RightUpLeg
    {
        OFFSET -17.704014 0.000000 0.000000
        CHANNELS 3 Zrotation Xrotation Yrotation
        JOINT RightLeg
        {
            OFFSET -0.000000 -81.181816 0.000000
            CHANNELS 3 Zrotation Xrotation Yrotation
            JOINT RightFoot
            {
                OFFSET -0.000000 -62.821102 0.000000
                CHANNELS 3 Zrotation Xrotation Yrotation
                JOINT RightToeBase
                {
                    OFFSET -0.000000 -11.507608 26.556021
                    CHANNELS 3 Zrotation Xrotation Yrotation
                    End Site
                    {
                        OFFSET -0.000000 0.000000 7.081605
                    }
                }
            }
        }
    }
}
MOTION
Frames:    5
Frame Time:    0.008333
-52.900169    146.549179    -46.231724    -0.215033    2.030618    -6.503061    -1.148684    2.621104    12.332129    -1.659200    -0.395833    4.096678    -1.698468    0.584200    -6.265824    11.971801    -4.702066    -4.088969    -0.753992    3.900771    -6.032022    -40.515877    18.545605    -41.551643    -1.028837    -27.927048    -131.055710    -3.752015    -29.729670    -6.186669    -3.860997    11.501861    5.619514    35.862125    10.374638    60.781609    -29.575455    -26.426998    50.129852    10.816565    -9.612469    36.123882    -3.806092    -36.175678    -17.263916    -21.000765    33.761452    -10.300530    10.754665    -0.469686    38.183659    0.000000    0.000000    0.000000    11.308771    -0.088759    -21.801640    3.258868    37.926598    -3.186109    -7.141039    -36.291946    -1.498549    0.000000    0.000000    0.000000    
-52.911484    146.555252    -46.256271    -0.212526    2.040699    -6.500750    -1.142324    2.621167    12.321391    -1.655742    -0.397614    4.093126    -1.699226    0.575407    -6.260479    11.956835    -4.699746    -4.086156    -0.754690    3.910362    -6.035344    -40.508324    18.568802    -41.582436    -1.022050    -27.937801    -131.043961    -3.812068    -29.723795    -6.192059    -3.863837    11.489193    5.624412    35.872543    10.369198    60.767441    -29.549742    -26.447498    50.168205    10.854057    -9.623360    36.125183    -3.793474    -36.180065    -17.240993    -20.996851    33.735809    -10.302771    10.751971    -0.451518    38.164684    0.000000    0.000000    0.000000    11.302967    -0.098321    -21.831165    3.268760    37.913254    -3.183108    -7.146717    -36.291172    -1.477596    0.000000    0.000000    0.000000    
-52.917469    146.562759    -46.283855    -0.206904    2.056418    -6.492317    -1.125163    2.617105    12.306153    -1.671035    -0.393616    4.088202    -1.675623    0.548778    -6.250529    11.910236    -4.677957    -4.089546    -0.740025    3.917461    -6.029867    -40.517338    18.587944    -41.615536    -1.005099    -27.931648    -131.026230    -3.873750    -29.680794    -6.220928    -3.852273    11.472897    5.626033    35.874725    10.359411    60.753841    -29.532806    -26.448917    50.206810    10.845279    -9.624373    36.119740    -3.794041    -36.188328    -17.217373    -20.969528    33.707569    -10.336600    10.731907    -0.426005    38.157383    0.000000    0.000000    0.000000    11.294025    -0.116660    -21.884384    3.256613    37.904579    -3.155320    -7.122918    -36.284679    -1.439925    0.000000    0.000000    0.000000    
-52.926064    146.571045    -46.312992    -0.200641    2.071456    -6.484643    -1.119498    2.615294    12.299076    -1.675978    -0.389541    4.085925    -1.665882    0.582918    -6.183645    11.893250    -4.762731    -4.016203    -0.724768    3.913654    -6.036870    -40.539825    18.591364    -41.632504    -1.021326    -27.877062    -131.027328    -3.914594    -29.655678    -6.241043    -3.839850    11.455414    5.601053    35.889740    10.347180    60.753822    -29.518219    -26.427256    50.243916    10.839433    -9.599752    36.099987    -3.788229    -36.198647    -17.191814    -20.955488    33.678837    -10.337943    10.722119    -0.402147    38.117748    0.000000    0.000000    0.000000    11.286022    -0.135125    -21.921799    3.254146    37.891068    -3.149117    -7.136817    -36.277096    -1.411437    0.000000    0.000000    0.000000    
-52.906345    146.571228    -46.318249    -0.185226    2.074363    -6.480293    -1.066233    2.595127    12.287379    -1.738707    -0.348007    4.082919    -1.663690    0.503731    -6.240125    11.903107    -4.638550    -4.085032    -0.704275    3.913475    -6.036315    -40.550323    18.622631    -41.650200    -1.013852    -27.873293    -131.029572    -3.915941    -29.638010    -6.230372    -3.824081    11.446384    5.591519    35.891254    10.345321    60.754101    -29.534458    -26.428074    50.253746    10.862940    -9.580064    36.116253    -3.818817    -36.187305    -17.171513    -20.917862    33.658661    -10.335482    10.730216    -0.398147    38.083923    0.000000    0.000000    0.000000    11.244919    -0.133081    -21.947371    3.284791    37.891541    -3.173263    -7.115280    -36.300442    -1.356303    0.000000    0.000000    0.000000    
